<svg width="20" height="20" viewBox="0 0 20 20" fill="none" xmlns="http://www.w3.org/2000/svg">
<path fill-rule="evenodd" clip-rule="evenodd" d="M10 1C12.444 1 12.75 1.01 13.71 1.054C14.669 1.098 15.323 1.25 15.895 1.473C16.487 1.703 16.989 2.01 17.489 2.511C17.989 3.011 18.298 3.513 18.528 4.105C18.75 4.677 18.902 5.331 18.946 6.289C18.99 7.25 19 7.556 19 10C19 12.444 18.99 12.75 18.946 13.71C18.902 14.669 18.75 15.323 18.528 15.895C18.3017 16.4956 17.9471 17.0396 17.489 17.489C16.989 17.989 16.487 18.298 15.895 18.528C15.323 18.75 14.669 18.902 13.711 18.946C12.751 18.99 12.444 19 10 19C7.556 19 7.25 18.99 6.29 18.946C5.331 18.902 4.677 18.75 4.105 18.528C3.50442 18.3017 2.96044 17.9471 2.511 17.489C2.011 16.989 1.702 16.487 1.473 15.895C1.25 15.323 1.098 14.669 1.054 13.711C1.01 12.75 1 12.444 1 10C1 7.556 1.01 7.25 1.054 6.29C1.098 5.331 1.25 4.677 1.473 4.105C1.69853 3.50423 2.05243 2.95991 2.51 2.51C3.01 2.01 3.512 1.701 4.104 1.472C4.676 1.249 5.33 1.097 6.288 1.053C7.25 1.01 7.556 1 10 1ZM10 2.622C7.597 2.622 7.312 2.631 6.363 2.674C5.486 2.714 5.009 2.861 4.693 2.984C4.272 3.147 3.973 3.342 3.657 3.657C3.342 3.972 3.147 4.272 2.984 4.692C2.861 5.009 2.714 5.486 2.674 6.363C2.631 7.313 2.622 7.597 2.622 10C2.622 12.403 2.631 12.688 2.674 13.637C2.714 14.514 2.861 14.991 2.984 15.307C3.147 15.728 3.342 16.027 3.657 16.343C3.972 16.658 4.272 16.853 4.692 17.016C5.009 17.139 5.486 17.286 6.363 17.326C7.313 17.369 7.597 17.378 10 17.378C12.403 17.378 12.688 17.369 13.637 17.326C14.514 17.286 14.991 17.139 15.307 17.016C15.728 16.853 16.027 16.658 16.343 16.343C16.658 16.028 16.853 15.728 17.016 15.308C17.139 14.991 17.286 14.514 17.326 13.637C17.369 12.687 17.378 12.403 17.378 10C17.378 7.597 17.369 7.312 17.326 6.363C17.286 5.486 17.139 5.009 17.016 4.693C16.872 4.30168 16.642 3.94766 16.343 3.657C16.0526 3.35814 15.699 3.12817 15.308 2.984C14.991 2.861 14.514 2.714 13.637 2.674C12.687 2.631 12.403 2.622 10 2.622ZM10 5.378C11.2258 5.378 12.4015 5.86496 13.2682 6.73175C14.135 7.59855 14.622 8.77417 14.622 10C14.622 11.2258 14.135 12.4015 13.2682 13.2682C12.4015 14.135 11.2258 14.622 10 14.622C8.77417 14.622 7.59855 14.135 6.73175 13.2682C5.86496 12.4015 5.378 11.2258 5.378 10C5.378 8.77417 5.86496 7.59855 6.73175 6.73175C7.59855 5.86496 8.77417 5.378 10 5.378ZM10 13C10.7956 13 11.5587 12.6839 12.1213 12.1213C12.6839 11.5587 13 10.7956 13 10C13 9.20435 12.6839 8.44129 12.1213 7.87868C11.5587 7.31607 10.7956 7 10 7C9.20435 7 8.44129 7.31607 7.87868 7.87868C7.31607 8.44129 7 9.20435 7 10C7 10.7956 7.31607 11.5587 7.87868 12.1213C8.44129 12.6839 9.20435 13 10 13ZM15.884 5.196C15.884 5.48243 15.7702 5.75714 15.5677 5.95968C15.3651 6.16221 15.0904 6.276 14.804 6.276C14.5176 6.276 14.2429 6.16221 14.0403 5.95968C13.8378 5.75714 13.724 5.48243 13.724 5.196C13.724 4.90957 13.8378 4.63486 14.0403 4.43232C14.2429 4.22979 14.5176 4.116 14.804 4.116C15.0904 4.116 15.3651 4.22979 15.5677 4.43232C15.7702 4.63486 15.884 4.90957 15.884 5.196Z" fill="white"/>
</svg>
