<svg width="102" height="40" viewBox="0 0 102 40" fill="none" xmlns="http://www.w3.org/2000/svg">
<path d="M19.797 17.1461C19.1604 8.80688 9.91669 0 9.91669 0C9.91669 0 0.672932 8.80688 0.0363859 17.1461C-0.467316 23.7266 4.3732 26.355 7.46183 27.356C9.05873 27.8729 10.7774 27.8729 12.3743 27.356C15.4602 26.355 20.3007 23.7266 19.797 17.1461Z" fill="#BFD466"/>
<path d="M17.9209 16.8722C17.7687 16.7218 17.5224 16.7218 17.3701 16.8722L10.3073 23.8521V19.6264L16.753 13.2565C16.9052 13.1061 16.9052 12.8627 16.753 12.7122C16.6008 12.5618 16.3544 12.5618 16.2022 12.7122L10.3073 18.5379V14.1974L15.1948 9.36725C15.347 9.21682 15.347 8.9734 15.1948 8.82298C15.0426 8.67255 14.7963 8.67255 14.6441 8.82298L10.3073 13.1088V5.56826C10.3073 5.35493 10.1329 5.18262 9.91703 5.18262C9.70116 5.18262 9.5268 5.35493 9.5268 5.56826V13.1061L5.19275 8.82298C5.04053 8.67255 4.79422 8.67255 4.642 8.82298C4.48978 8.9734 4.48978 9.21682 4.642 9.36725L9.52956 14.1974V18.5406L3.6346 12.715C3.48238 12.5645 3.23606 12.5645 3.08384 12.715C2.93163 12.8654 2.93163 13.1088 3.08384 13.2592L9.52956 19.6292V23.8548L2.46667 16.8722C2.31445 16.7218 2.06814 16.7218 1.91592 16.8722C1.7637 17.0227 1.7637 17.2661 1.91592 17.4165L9.52956 24.9407V33.5807C9.52956 33.794 9.70392 33.9663 9.91979 33.9663C10.1357 33.9663 10.31 33.794 10.31 33.5807V24.9407L17.9237 17.4165C18.0731 17.2661 18.0731 17.0227 17.9209 16.8722Z" fill="#6F913C"/>
<path d="M25.8722 11.1973C23.0742 7.20414 20.7798 0 20.7798 0C20.7798 0 18.4827 7.20414 15.6875 11.1973C12.6901 15.4749 10.4678 19.7526 10.4678 23.9673C10.4678 23.9673 10.786 33.4443 20.7798 33.581C30.7736 33.4443 31.0919 23.9673 31.0919 23.9673C31.0919 19.7526 28.8667 15.4749 25.8722 11.1973Z" fill="#72C7D5"/>
<path d="M41.4811 36.3926C40.9608 36.1848 40.554 35.78 40.0254 35.5803C39.2975 35.3205 38.4728 35.274 37.7366 35.5202C36.613 35.8894 35.7522 36.8275 34.6341 37.1721C33.8288 37.4101 33.0538 37.112 32.4256 36.595C31.7088 36.089 30.7595 35.955 29.9015 36.0863C28.7419 36.275 27.848 37.0955 26.9402 37.7301C26.4393 38.0774 25.9328 38.3619 25.3599 38.4248C24.0204 38.6272 22.9189 37.7383 21.6154 37.514C20.0517 37.1885 18.6236 38.2251 17.7158 39.3821C17.4031 39.8115 18.0535 40.2518 18.3496 39.8279C19.0387 38.9198 20.1098 37.9954 21.3248 38.1321C22.2325 38.206 22.9577 38.6518 23.871 38.8761C24.4494 39.0156 25.0693 39.0347 25.6533 38.9116C27.9116 38.3209 28.753 35.8019 31.54 36.5294C32.0852 36.6661 32.4671 37.0518 32.9763 37.3007C33.516 37.5496 34.1387 37.5714 34.7033 37.4046C35.7937 37.0408 36.5604 36.1684 37.5927 35.7308C38.3427 35.3916 39.2228 35.3998 39.9977 35.6514C40.5236 35.832 40.947 36.2258 41.4701 36.4173C41.7302 36.5184 42.0042 36.5786 42.2782 36.6279C42.0098 36.5677 41.7385 36.4993 41.4811 36.3926Z" fill="#54AFE3"/>
<path d="M17.9616 36.3568C18.5622 35.5636 19.4755 34.7403 20.5023 34.6528C21.6785 34.5461 22.4202 35.5472 23.519 35.9356C24.4406 36.2774 25.5642 36.0723 26.1786 35.2764C26.7432 34.6337 27.1113 33.7858 27.7202 33.2278C28.52 32.4675 29.8623 32.648 30.6594 33.3373C31.1022 33.7037 31.5201 34.1933 32.1151 34.352C32.7129 34.527 33.3965 34.3738 33.8532 33.9636C34.7166 33.2333 35.2868 32.0381 36.5405 31.9971C37.7278 31.9232 38.7324 32.6289 39.7979 33.0391C40.3432 33.2415 40.9243 33.3373 41.5055 33.3455C40.9271 33.3263 40.3487 33.2169 39.8118 33.0036C38.749 32.566 37.7499 31.8384 36.5377 31.8849C35.2729 31.8658 34.57 33.0966 33.712 33.7885C33.2858 34.1441 32.7184 34.2535 32.1926 34.0894C31.6723 33.9362 31.3153 33.4849 30.8669 33.0938C29.9675 32.2706 28.3927 32.0572 27.4434 32.9161C26.1952 33.9937 25.7856 36.1544 23.721 35.394C22.9682 35.1096 22.2846 34.3629 21.4405 34.1113C19.8215 33.5834 18.2772 34.7048 17.3306 35.9055C17.0151 36.3403 17.6627 36.7807 17.9616 36.3568Z" fill="#54AFE3"/>
<path d="M19.7391 30.1242C20.6081 30.0476 21.181 30.7615 21.812 31.3522C22.2825 31.8062 22.7945 32.2767 23.4698 32.4517C24.956 32.8483 25.9191 31.4644 26.6719 30.4797C27.3306 29.5635 28.4958 28.7102 29.5779 29.4486C30.065 29.7686 30.4663 30.2637 31.0032 30.6302C31.5291 31.0049 32.2625 31.1827 32.8962 30.9256C33.5023 30.6685 33.9092 30.157 34.3326 29.6948C35.1657 28.6856 36.2035 28.0401 37.5015 28.6746C38.0495 28.9536 38.4536 29.4459 38.9628 29.8042C39.4693 30.1734 40.0947 30.3512 40.7202 30.3539C40.1003 30.3375 39.4803 30.1488 38.9877 29.7686C38.4923 29.4049 38.1021 28.9016 37.5403 28.598C36.198 27.9088 35.0854 28.5488 34.1915 29.5662C33.6047 30.1898 32.9045 30.983 31.9553 30.7505C31.0143 30.5536 30.5493 29.7139 29.7689 29.1642C28.5151 28.2726 27.1203 29.1478 26.3149 30.1926C25.7226 30.8572 25.2466 31.664 24.3887 31.9184C23.5141 32.1454 22.8499 31.5546 22.241 30.9256C21.5602 30.2254 20.7659 29.3447 19.6561 29.4596C18.0786 29.7057 16.8885 31.5191 16.1302 32.7635C15.8783 33.2285 16.5758 33.5813 16.8165 33.1273C17.4392 32.0633 18.466 30.3895 19.7391 30.1242Z" fill="#54AFE3"/>
<path d="M41.7304 3.04947V2.66656C41.7304 2.24263 41.5948 2.0293 41.3263 2.0293H34.2496C33.9895 2.0293 33.8594 2.24263 33.8594 2.66656V3.05221C33.8594 3.47614 33.9895 3.68948 34.2496 3.68948H36.8124V12.0013C36.8124 12.1408 36.8761 12.2447 37.0006 12.3186C37.1251 12.3924 37.3216 12.4307 37.5929 12.4307H38.0135C38.2931 12.4307 38.4923 12.3924 38.6141 12.3186C38.7331 12.2447 38.794 12.1381 38.794 12.0013V3.68674H41.3263C41.5948 3.68674 41.7304 3.47614 41.7304 3.04947Z" fill="#54AFE3"/>
<path d="M48.3201 5.04387C47.8552 4.71293 47.2436 4.54883 46.4825 4.54883C45.7629 4.54883 45.1319 4.68832 44.5922 4.97003C44.0525 5.25174 43.6346 5.68935 43.3413 6.28012C43.0451 6.87363 42.8984 7.63944 42.8984 8.57757C42.8984 9.8521 43.2084 10.8258 43.8283 11.4959C44.4483 12.1687 45.4031 12.5024 46.6928 12.5024C46.9834 12.5024 47.2878 12.4723 47.6061 12.4148C47.9271 12.3547 48.2288 12.2699 48.5139 12.155C48.7989 12.0429 49.0287 11.9198 49.203 11.7913C49.3774 11.6627 49.4659 11.5342 49.4659 11.4056C49.4659 11.3154 49.4355 11.1923 49.3746 11.0364C49.3137 10.8777 49.2418 10.7355 49.156 10.607C49.0702 10.4784 48.9844 10.4155 48.893 10.4155C48.8128 10.4155 48.6799 10.4648 48.4945 10.5632C48.3091 10.6617 48.0711 10.7601 47.7832 10.8586C47.4926 10.9571 47.1522 11.0063 46.7648 11.0063C46.1753 11.0063 45.7103 10.8668 45.3699 10.5851C45.0295 10.3034 44.8496 9.82749 44.8302 9.15466H48.9373C49.037 9.15466 49.1421 9.1109 49.2528 9.02064C49.3635 8.93312 49.4576 8.82098 49.5379 8.68697C49.6182 8.55295 49.6569 8.43261 49.6569 8.3232C49.6569 7.60115 49.549 6.95841 49.3359 6.38952C49.1255 5.82336 48.7851 5.37482 48.3201 5.04387ZM44.8219 7.83636C44.833 7.38235 44.9105 7.02679 45.0544 6.76969C45.1983 6.5126 45.3893 6.32661 45.6245 6.21448C45.8598 6.10234 46.1116 6.0449 46.3828 6.0449C46.8616 6.0449 47.2242 6.19533 47.4705 6.49619C47.714 6.79704 47.8386 7.24559 47.8386 7.83636H44.8219Z" fill="#54AFE3"/>
<path d="M61.4158 4.81413C61.0754 4.63635 60.6519 4.54883 60.1427 4.54883C59.8216 4.54883 59.5144 4.60626 59.2211 4.7184C58.9249 4.83054 58.662 4.9837 58.4268 5.16969C58.1915 5.3584 57.995 5.5608 57.8345 5.77687C57.746 5.50063 57.602 5.27362 57.4083 5.09584C57.2146 4.91806 56.9766 4.78131 56.697 4.68832C56.4175 4.59532 56.0965 4.54883 55.7367 4.54883C55.4267 4.54883 55.1306 4.59806 54.8511 4.69652C54.5715 4.79498 54.3169 4.93174 54.0872 5.10404C53.8575 5.27635 53.661 5.46234 53.5032 5.65926C53.4534 5.39396 53.4091 5.19157 53.3676 5.05208C53.3289 4.91259 53.2791 4.81413 53.2182 4.75669C53.1573 4.69652 53.0743 4.66917 52.9636 4.66917C52.8833 4.66917 52.7671 4.67738 52.6121 4.69105C52.4571 4.70473 52.2966 4.72934 52.1333 4.75669C51.9672 4.78678 51.8288 4.83054 51.7126 4.89071C51.5964 4.95088 51.541 5.02473 51.541 5.11225C51.541 5.19977 51.5521 5.32011 51.5798 5.46781C51.6047 5.6155 51.6296 5.82063 51.6545 6.08319C51.6794 6.34576 51.6932 6.68764 51.6932 7.11157V12.0019C51.6932 12.1413 51.7541 12.2453 51.8814 12.3191C52.006 12.393 52.208 12.4313 52.4875 12.4313H52.8169C53.0964 12.4313 53.2984 12.393 53.423 12.3191C53.5475 12.2453 53.6112 12.1386 53.6112 12.0019V7.02405C53.7108 6.83807 53.8353 6.67397 53.9848 6.53448C54.1342 6.39773 54.3003 6.29106 54.4802 6.21721C54.6601 6.14337 54.8455 6.10507 55.0337 6.10507C55.4129 6.10507 55.6869 6.19807 55.8585 6.38679C56.0273 6.5755 56.1131 6.84627 56.1131 7.20183V12.0019C56.1131 12.1413 56.1767 12.2453 56.3013 12.3191C56.4258 12.393 56.6334 12.4313 56.924 12.4313H57.2395C57.519 12.4313 57.721 12.393 57.8456 12.3191C57.9701 12.2453 58.0338 12.1386 58.0338 12.0019V6.95294C58.0947 6.86816 58.1583 6.78884 58.2275 6.71773C58.3576 6.58371 58.4904 6.47157 58.6261 6.37585C58.7617 6.28285 58.8973 6.21174 59.0384 6.16798C59.1796 6.12422 59.3179 6.10234 59.4591 6.10234C59.8383 6.10234 60.1122 6.19533 60.2838 6.38405C60.4527 6.57277 60.5385 6.84354 60.5385 7.1991V11.9991C60.5385 12.1386 60.5993 12.2425 60.7267 12.3164C60.8512 12.3902 61.0532 12.4285 61.3328 12.4285H61.6483C61.9389 12.4285 62.1464 12.3902 62.271 12.3164C62.3955 12.2425 62.4592 12.1359 62.4592 11.9991V6.94747C62.4592 6.4032 62.3706 5.95738 62.1962 5.60729C62.0108 5.25721 61.7534 4.99191 61.4158 4.81413Z" fill="#54AFE3"/>
<path d="M70.4193 11.9991C70.8843 11.6627 71.2358 11.1977 71.4765 10.5988C71.7173 10.0025 71.8363 9.30782 71.8363 8.51739C71.8363 7.65859 71.7173 6.93106 71.4765 6.34029C71.2358 5.74678 70.9009 5.30097 70.4719 5.00011C70.0429 4.69926 69.5364 4.54883 68.958 4.54883C68.6591 4.54883 68.3741 4.59259 68.1028 4.68285C67.8316 4.7731 67.5881 4.89618 67.3694 5.05208C67.1508 5.21071 66.9598 5.3967 66.7993 5.6155C66.7495 5.3584 66.7024 5.16422 66.6582 5.0302C66.6139 4.89618 66.5641 4.80319 66.5087 4.74849C66.4533 4.69379 66.3703 4.66644 66.2624 4.66644C66.1821 4.66644 66.0659 4.67464 65.9109 4.68832C65.7559 4.70199 65.5954 4.72661 65.4321 4.75396C65.2661 4.78404 65.1277 4.8278 65.0114 4.88798C64.8952 4.94815 64.8398 5.02199 64.8398 5.10951C64.8398 5.19704 64.8509 5.31738 64.8786 5.46507C64.9035 5.61276 64.9284 5.81789 64.9533 6.08046C64.9782 6.34302 64.9921 6.68491 64.9921 7.10884V15.035C64.9921 15.1636 65.0529 15.2675 65.1803 15.3468C65.3048 15.4261 65.5068 15.4644 65.7864 15.4644H66.1157C66.3952 15.4644 66.5973 15.4261 66.7218 15.3468C66.8463 15.2675 66.91 15.1636 66.91 15.035V11.8952C67.0511 12.0046 67.2117 12.1058 67.3971 12.1988C67.5825 12.2918 67.7873 12.3656 68.0115 12.4203C68.2357 12.475 68.4792 12.5024 68.7394 12.5024C69.3925 12.5024 69.9544 12.3355 70.4193 11.9991ZM67.5493 10.8586C67.3085 10.7601 67.0954 10.6261 66.9045 10.4593V6.97756C67.0844 6.72046 67.3002 6.50986 67.5493 6.34029C67.7984 6.17345 68.0779 6.08866 68.3879 6.08866C68.8778 6.08866 69.2514 6.29106 69.5115 6.69585C69.7717 7.10063 69.9018 7.70782 69.9018 8.51739C69.9018 9.31876 69.7689 9.93142 69.5032 10.3608C69.2375 10.7902 68.8473 11.0063 68.327 11.0063C68.0503 11.0063 67.7901 10.9571 67.5493 10.8586Z" fill="#54AFE3"/>
<path d="M79.6817 11.4822C80.2822 10.8012 80.5811 9.81928 80.5811 8.5338C80.5811 7.24012 80.2822 6.25277 79.6817 5.57174C79.0811 4.89071 78.201 4.54883 77.0442 4.54883C75.8735 4.54883 74.9851 4.89071 74.3762 5.57174C73.7673 6.25277 73.4629 7.24012 73.4629 8.5338C73.4629 9.81655 73.7673 10.8012 74.3762 11.4822C74.9851 12.1632 75.8762 12.5051 77.0442 12.5051C78.2038 12.5024 79.0839 12.1632 79.6817 11.4822ZM78.2591 10.3854C77.999 10.8012 77.5894 11.009 77.0303 11.009C76.4602 11.009 76.045 10.8012 75.7849 10.3854C75.5247 9.96971 75.3947 9.34885 75.3947 8.51739C75.3947 7.68867 75.5247 7.06781 75.7849 6.65756C76.045 6.2473 76.4602 6.04217 77.0303 6.04217C77.5894 6.04217 77.999 6.25003 78.2591 6.66576C78.5193 7.08149 78.6494 7.69688 78.6494 8.51739C78.6494 9.34885 78.5193 9.96971 78.2591 10.3854Z" fill="#54AFE3"/>
<path d="M91.1486 11.3912C91.1985 11.6565 91.2427 11.8644 91.2843 12.0121C91.323 12.1597 91.3728 12.2637 91.4337 12.3238C91.4946 12.384 91.5776 12.4141 91.6883 12.4141C91.7686 12.4141 91.8848 12.4059 92.0398 12.3922C92.1948 12.3786 92.3553 12.3539 92.5186 12.3184C92.6847 12.2828 92.823 12.2363 92.9393 12.1789C93.0527 12.1187 93.1109 12.0394 93.1109 11.9409C93.1109 11.8534 93.097 11.7303 93.0721 11.5772C93.0472 11.424 93.0223 11.2189 92.9974 10.9618C92.9725 10.7047 92.9587 10.3655 92.9587 9.93888V1.67354C92.9587 1.53406 92.895 1.43012 92.7649 1.35628C92.6348 1.28243 92.43 1.24414 92.1505 1.24414H91.8654C91.5749 1.24414 91.3645 1.28243 91.2372 1.35628C91.1071 1.43012 91.0435 1.53679 91.0435 1.67354V5.08142C90.8525 4.94194 90.609 4.81886 90.3101 4.71219C90.0112 4.60279 89.6652 4.54809 89.275 4.54809C88.6357 4.54809 88.0877 4.71493 87.6338 5.05134C87.1799 5.38775 86.8312 5.85271 86.5932 6.44348C86.3524 7.03699 86.2334 7.73169 86.2334 8.53306C86.2334 9.39187 86.3496 10.1194 86.5849 10.7102C86.8201 11.3037 87.1495 11.7495 87.5757 12.0503C87.9991 12.3512 88.4918 12.5016 89.0536 12.5016C89.3525 12.5016 89.632 12.4551 89.8922 12.3621C90.1523 12.2691 90.3903 12.1379 90.6117 11.9683C90.8276 11.8015 91.0075 11.61 91.1486 11.3912ZM89.6182 10.9618C89.1477 10.9618 88.7879 10.7594 88.5388 10.3546C88.2897 9.94982 88.1652 9.34264 88.1652 8.53306C88.1652 7.72349 88.2953 7.10536 88.5554 6.68143C88.8156 6.2575 89.1892 6.04416 89.6791 6.04416C89.9392 6.04416 90.1883 6.08792 90.4291 6.17818C90.6698 6.26844 90.8747 6.38057 91.0435 6.52006V10.0319C90.883 10.289 90.6809 10.5078 90.4374 10.691C90.1911 10.8715 89.9198 10.9618 89.6182 10.9618Z" fill="#54AFE3"/>
<path d="M101.596 9.02045C101.707 8.93293 101.801 8.82079 101.881 8.68677C101.962 8.55275 102 8.43241 102 8.32301C102 7.60096 101.892 6.95822 101.677 6.38933C101.461 5.82043 101.123 5.37189 100.658 5.04094C100.193 4.71 99.5814 4.5459 98.8204 4.5459C98.1008 4.5459 97.4698 4.68539 96.9301 4.9671C96.3904 5.24881 95.9725 5.68642 95.6791 6.27719C95.383 6.8707 95.2363 7.63651 95.2363 8.57463C95.2363 9.84917 95.5463 10.8229 96.1662 11.4929C96.7862 12.1658 97.741 12.4994 99.0307 12.4994C99.3213 12.4994 99.6257 12.4694 99.944 12.4119C100.265 12.3517 100.567 12.267 100.852 12.1521C101.137 12.04 101.367 11.9169 101.541 11.7883C101.715 11.6598 101.804 11.5312 101.804 11.4027C101.804 11.3124 101.773 11.1893 101.712 11.0334C101.652 10.8748 101.58 10.7326 101.494 10.604C101.408 10.4755 101.322 10.4126 101.231 10.4126C101.151 10.4126 101.018 10.4618 100.832 10.5603C100.647 10.6587 100.409 10.7572 100.121 10.8557C99.8305 10.9541 99.4901 11.0034 99.1027 11.0034C98.5132 11.0034 98.0482 10.8639 97.7078 10.5822C97.3674 10.3005 97.1875 9.82455 97.1681 9.15173H101.275C101.38 9.15447 101.486 9.11071 101.596 9.02045ZM97.1598 7.83617C97.1709 7.38215 97.2484 7.02659 97.3923 6.7695C97.5362 6.5124 97.7272 6.32642 97.9624 6.21428C98.1977 6.10214 98.4495 6.04471 98.7207 6.04471C99.1995 6.04471 99.5621 6.19514 99.8084 6.49599C100.052 6.79685 100.176 7.2454 100.176 7.83617H97.1598Z" fill="#54AFE3"/>
<path d="M49.1141 20.9235C48.984 20.8742 48.7737 20.8496 48.4859 20.8496H48.0347C47.8659 20.8496 47.722 20.8715 47.6085 20.9153C47.4923 20.959 47.4148 21.0329 47.3761 21.1313L44.8271 29.2955H44.7662L42.2173 21.1313C42.1785 21.0219 42.09 20.9481 41.9544 20.9098C41.8187 20.8715 41.6527 20.8496 41.4534 20.8496H40.9608C40.7117 20.8496 40.529 20.8742 40.4128 20.9235C40.2966 20.9727 40.2412 21.0465 40.2412 21.145C40.2412 21.1833 40.2467 21.2243 40.255 21.2626C40.2661 21.3009 40.2744 21.3474 40.2855 21.3966L43.673 30.9666C43.7118 31.076 43.7948 31.1553 43.9193 31.2045C44.0439 31.2538 44.2155 31.2784 44.4369 31.2784H45.0956C45.3142 31.2784 45.4913 31.2538 45.6214 31.2045C45.7515 31.1553 45.8317 31.076 45.8622 30.9666L49.2497 21.3966C49.2691 21.3474 49.2857 21.3036 49.294 21.2626C49.3051 21.2243 49.3078 21.1833 49.3078 21.145C49.3106 21.0493 49.2442 20.9727 49.1141 20.9235Z" fill="#54AFE3"/>
<path d="M52.5628 23.5848C52.4382 23.5109 52.2362 23.4727 51.9566 23.4727H51.6273C51.3478 23.4727 51.1457 23.5109 51.0212 23.5848C50.8967 23.6586 50.833 23.7653 50.833 23.9021V30.8518C50.833 30.9913 50.8939 31.0953 51.0212 31.1691C51.1457 31.2429 51.3478 31.2812 51.6273 31.2812H51.9566C52.2362 31.2812 52.4382 31.2429 52.5628 31.1691C52.6873 31.0953 52.751 30.9886 52.751 30.8518V23.9021C52.751 23.7653 52.6873 23.6586 52.5628 23.5848Z" fill="#54AFE3"/>
<path d="M53.2075 20.6633C53.0829 20.6277 52.8864 20.6113 52.6152 20.6113C52.344 20.6113 52.1364 20.625 51.9925 20.6496C51.8486 20.6742 51.7407 20.718 51.6715 20.7836C51.6023 20.8465 51.5303 20.9341 51.4611 21.0435L50.8606 22.1402C50.8107 22.2387 50.7692 22.318 50.7332 22.3782C50.6973 22.4383 50.6807 22.493 50.6807 22.5423C50.6807 22.6107 50.7166 22.6654 50.7858 22.7064C50.855 22.7447 50.9906 22.7666 51.1899 22.7666C51.3698 22.7666 51.5137 22.7556 51.6244 22.7283C51.7351 22.7036 51.8375 22.6626 51.9316 22.6024C52.0257 22.5423 52.1226 22.4602 52.225 22.3508L53.0636 21.4318C53.1632 21.3033 53.2435 21.1939 53.3043 21.1064C53.3652 21.0189 53.3929 20.9395 53.3929 20.8684C53.3957 20.7672 53.332 20.6989 53.2075 20.6633Z" fill="#54AFE3"/>
<path d="M58.8417 23.3984C58.612 23.3984 58.3878 23.4477 58.1664 23.5461C57.9478 23.6446 57.7457 23.7868 57.5658 23.9673C57.386 24.1506 57.242 24.3694 57.1313 24.6265C57.0815 24.3202 57.0345 24.0877 56.9902 23.929C56.9459 23.7704 56.8933 23.6637 56.8324 23.6036C56.7716 23.5434 56.6885 23.516 56.5778 23.516C56.4976 23.516 56.3813 23.5242 56.2263 23.5379C56.0713 23.5516 55.9108 23.5762 55.7475 23.6036C55.5815 23.6337 55.4431 23.6774 55.3269 23.7376C55.2106 23.7978 55.1553 23.8716 55.1553 23.9591C55.1553 24.0466 55.1663 24.167 55.194 24.3147C55.2189 24.4624 55.2438 24.6675 55.2687 24.9301C55.2937 25.1926 55.3075 25.5345 55.3075 25.9584V30.8487C55.3075 30.9882 55.3684 31.0921 55.4957 31.166C55.6202 31.2398 55.8223 31.2781 56.1018 31.2781H56.4007C56.6913 31.2781 56.8989 31.2398 57.0234 31.166C57.1479 31.0921 57.2116 30.9855 57.2116 30.8487V25.8737C57.3112 25.6658 57.4579 25.5044 57.6544 25.3841C57.8481 25.2665 58.0668 25.2063 58.3076 25.2063C58.4985 25.2063 58.6424 25.2309 58.7421 25.2802C58.8417 25.3294 58.933 25.354 59.0133 25.354C59.1019 25.354 59.1766 25.2993 59.2319 25.1899C59.2873 25.0805 59.3343 24.9492 59.3731 24.7961C59.4118 24.6429 59.4395 24.4925 59.4561 24.3448C59.47 24.1971 59.4783 24.0767 59.4783 23.9892C59.4783 23.7923 59.4367 23.6446 59.3509 23.5461C59.2596 23.4477 59.0908 23.3984 58.8417 23.3984Z" fill="#54AFE3"/>
<path d="M75.0543 29.8125C75.0294 29.5554 75.0155 29.2163 75.0155 28.7896V23.9021C75.0155 23.7653 74.9519 23.6586 74.8273 23.5848C74.7028 23.5109 74.5008 23.4727 74.2212 23.4727H73.8919C73.6124 23.4727 73.4103 23.5109 73.2858 23.5848C73.1612 23.6586 73.0976 23.7653 73.0976 23.9021V28.8799C72.998 29.0686 72.8651 29.2299 72.6991 29.3694C72.533 29.5089 72.3531 29.6129 72.1594 29.6867C71.9656 29.7605 71.7719 29.7988 71.581 29.7988C71.2212 29.7988 70.9582 29.7086 70.795 29.5253C70.6289 29.3421 70.5486 29.0877 70.5486 28.7623V23.9021C70.5486 23.7653 70.485 23.6586 70.3604 23.5848C70.2359 23.5109 70.0283 23.4727 69.7377 23.4727H69.4222C69.1427 23.4727 68.9407 23.5109 68.8161 23.5848C68.6916 23.6586 68.6279 23.7653 68.6279 23.9021V29.0139C68.6279 29.7934 68.8189 30.3787 69.1981 30.7698C69.5772 31.1609 70.1363 31.3551 70.878 31.3551C71.1963 31.3551 71.5035 31.3059 71.7913 31.2074C72.0819 31.1089 72.3476 30.9722 72.5939 30.7999C72.8374 30.6276 73.0422 30.4416 73.2 30.2447C73.2498 30.51 73.2941 30.7178 73.3356 30.8682C73.3744 31.0159 73.4242 31.1199 73.485 31.18C73.5459 31.2402 73.629 31.2676 73.7397 31.2676C73.8199 31.2676 73.9362 31.2594 74.0912 31.2457C74.2461 31.232 74.4067 31.2074 74.5699 31.1718C74.736 31.1363 74.8744 31.0898 74.9906 31.0323C75.1041 30.9722 75.1622 30.8956 75.1622 30.7944C75.1622 30.7069 75.1484 30.5838 75.1235 30.4306C75.1041 30.2747 75.0792 30.0696 75.0543 29.8125Z" fill="#54AFE3"/>
<path d="M81.0246 30.1324C80.9941 30.0093 80.9582 29.9054 80.9111 29.8206C80.8668 29.7358 80.8143 29.6948 80.7534 29.6948C80.6842 29.6948 80.6012 29.7167 80.5071 29.7604C80.413 29.8042 80.269 29.8261 80.0808 29.8261C79.8622 29.8261 79.7072 29.7741 79.6242 29.6702C79.5384 29.5662 79.4969 29.3857 79.4969 29.1286V20.5241C79.4969 20.3846 79.436 20.2807 79.317 20.2069C79.198 20.133 78.9932 20.0947 78.7026 20.0947H78.3871C78.0965 20.0947 77.8917 20.133 77.7727 20.2069C77.6537 20.2807 77.5928 20.3874 77.5928 20.5241V29.2353C77.5928 29.6893 77.6675 30.0777 77.817 30.3977C77.9664 30.7177 78.1933 30.9584 78.4978 31.117C78.8022 31.2756 79.1786 31.3549 79.6297 31.3549C79.8401 31.3549 80.0587 31.3303 80.2884 31.2811C80.5181 31.2319 80.7119 31.158 80.8724 31.0596C81.0329 30.9611 81.1131 30.8572 81.1131 30.7478C81.1131 30.6985 81.1049 30.6137 81.091 30.4961C81.0772 30.3758 81.055 30.2555 81.0246 30.1324Z" fill="#54AFE3"/>
<path d="M88.5105 29.886C88.4856 29.618 88.4718 29.2487 88.4718 28.7756V25.8135C88.4718 25.4579 88.4109 25.1325 88.2919 24.8343C88.1729 24.539 87.9874 24.2819 87.7383 24.0631C87.4893 23.847 87.1682 23.6801 86.778 23.568C86.3878 23.4559 85.9228 23.3984 85.3831 23.3984C85.0427 23.3984 84.7023 23.4258 84.3563 23.4805C84.0104 23.5352 83.7004 23.6118 83.4181 23.7102C83.1386 23.8087 82.9144 23.9154 82.7428 24.0275C82.574 24.1424 82.4882 24.2572 82.4882 24.3749C82.4882 24.4432 82.5021 24.5362 82.5325 24.6484C82.5629 24.7632 82.6017 24.8754 82.6515 24.9902C82.7013 25.1051 82.7567 25.2008 82.8176 25.2802C82.8785 25.3595 82.9366 25.3978 82.9975 25.3978C83.086 25.3978 83.2355 25.3567 83.4403 25.272C83.6451 25.1872 83.8997 25.1051 84.2041 25.0203C84.5086 24.9355 84.8573 24.8945 85.2447 24.8945C85.563 24.8945 85.8232 24.9355 86.0169 25.0203C86.2106 25.1051 86.3518 25.22 86.4376 25.3677C86.5234 25.5154 86.5649 25.6931 86.5649 25.901V26.4343C85.6267 26.4343 84.8573 26.5055 84.265 26.6504C83.67 26.7926 83.2133 26.9923 82.8923 27.2439C82.5713 27.4955 82.3498 27.7882 82.2253 28.1191C82.1008 28.4501 82.0371 28.8029 82.0371 29.1776C82.0371 29.8286 82.2308 30.3564 82.6211 30.7557C83.0113 31.1551 83.5953 31.3547 84.3757 31.3547C84.8047 31.3547 85.1783 31.2863 85.4938 31.1468C85.8093 31.0074 86.064 30.8515 86.2577 30.6737C86.4514 30.4959 86.5953 30.3537 86.6839 30.2443C86.7143 30.4111 86.7475 30.5752 86.7808 30.7339C86.8167 30.8925 86.8666 31.021 86.9302 31.1195C86.9939 31.218 87.0963 31.2672 87.2374 31.2672C87.326 31.2672 87.4505 31.259 87.6055 31.2453C87.7605 31.2316 87.9155 31.207 88.0705 31.1715C88.2254 31.1359 88.3583 31.0921 88.469 31.0374C88.5797 30.9827 88.635 30.9171 88.635 30.8378C88.635 30.7503 88.6212 30.6354 88.5908 30.4959C88.5631 30.3564 88.5354 30.154 88.5105 29.886ZM86.5677 28.8795C86.457 29.0573 86.3186 29.2214 86.147 29.3691C85.9782 29.5168 85.7872 29.6344 85.5769 29.7246C85.3665 29.8121 85.1368 29.8586 84.8877 29.8586C84.5778 29.8586 84.3453 29.7821 84.1903 29.6289C84.0353 29.4757 83.9578 29.2651 83.9578 28.9998C83.9578 28.792 84.0021 28.606 84.0934 28.4446C84.1848 28.2832 84.3314 28.152 84.5362 28.0508C84.741 27.9523 85.0095 27.8785 85.3388 27.8292C85.6682 27.78 86.0778 27.7554 86.5677 27.7554V28.8795Z" fill="#54AFE3"/>
<path d="M94.9256 27.3092C94.7319 27.1314 94.5132 26.9837 94.2724 26.8661C94.0317 26.7485 93.7964 26.65 93.5667 26.5707C93.3065 26.4832 93.0851 26.3929 92.8997 26.3054C92.7143 26.2152 92.5787 26.114 92.4873 26.0018C92.396 25.8897 92.3517 25.7475 92.3517 25.5806C92.3517 25.3427 92.4403 25.1676 92.6202 25.0555C92.8001 24.9434 93.0353 24.8859 93.3259 24.8859C93.7161 24.8859 94.0206 24.9406 94.2392 25.05C94.4579 25.1594 94.6045 25.2141 94.6737 25.2141C94.7623 25.2141 94.8509 25.1512 94.9367 25.0227C95.0225 24.8941 95.0972 24.7464 95.1608 24.5769C95.2245 24.41 95.2577 24.276 95.2577 24.1775C95.2577 24.049 95.1913 23.9369 95.0557 23.8357C94.9201 23.7372 94.7429 23.6551 94.5243 23.5922C94.3057 23.5293 94.0732 23.4801 93.8269 23.4445C93.5833 23.409 93.3398 23.3926 93.099 23.3926C92.5787 23.3926 92.1193 23.4883 91.7207 23.6825C91.3222 23.8739 91.0122 24.1447 90.7908 24.4893C90.5722 24.834 90.4615 25.2497 90.4615 25.7338C90.4615 26.1085 90.5196 26.4258 90.6331 26.6828C90.7465 26.9399 90.9015 27.1533 91.098 27.3201C91.2917 27.487 91.5021 27.6264 91.729 27.7358C91.9532 27.8452 92.1718 27.9382 92.3822 28.0176C92.6313 28.116 92.8554 28.2117 93.0575 28.3075C93.2567 28.4005 93.4117 28.5071 93.5224 28.6247C93.6331 28.7423 93.6885 28.901 93.6885 29.0979C93.6885 29.3441 93.5971 29.5382 93.4117 29.675C93.2263 29.8145 92.9495 29.8829 92.5787 29.8829C92.2881 29.8829 92.0362 29.8446 91.8203 29.7653C91.6045 29.6859 91.4274 29.6039 91.289 29.5218C91.1478 29.4371 91.0482 29.396 90.9901 29.396C90.9015 29.396 90.7991 29.4589 90.6912 29.5875C90.5805 29.716 90.4864 29.8582 90.4061 30.0169C90.3259 30.1755 90.2871 30.3041 90.2871 30.4025C90.2871 30.542 90.3563 30.6678 90.4974 30.78C90.6358 30.8948 90.824 30.996 91.0593 31.0918C91.2945 31.1848 91.5574 31.2586 91.8453 31.3078C92.1359 31.3571 92.4292 31.3817 92.7309 31.3817C93.3204 31.3817 93.8241 31.2777 94.2448 31.0699C94.6654 30.862 94.992 30.5721 95.2273 30.2029C95.4625 29.8336 95.5787 29.4097 95.5787 28.9365C95.5787 28.5618 95.5179 28.2418 95.3989 27.982C95.2771 27.7058 95.1193 27.487 94.9256 27.3092Z" fill="#54AFE3"/>
<path d="M63.2123 32.3121C63.2123 32.3121 67.4384 31.3275 66.979 26.5056C66.788 24.5199 65.3433 22.8926 63.323 22.8926C61.3054 22.8926 59.667 24.509 59.667 26.5056C59.667 28.5022 61.3026 30.1186 63.323 30.1186C63.9651 30.1186 64.5656 29.9545 65.0887 29.6673C65.1136 29.6646 65.1358 29.6646 65.1607 29.6618C65.1607 29.6618 64.5296 30.6218 62.8497 31.2208C62.5176 31.3384 62.3654 31.7186 62.5342 32.0249L62.5425 32.0413C62.6726 32.2793 62.9521 32.3942 63.2123 32.3121Z" fill="#8FBF4D"/>
<path d="M63.9183 32.3121C63.9183 32.3121 68.1444 31.3275 67.685 26.5056C67.4941 24.5199 66.0494 22.8926 64.029 22.8926C62.0115 22.8926 60.373 24.509 60.373 26.5056C60.373 28.5022 62.0087 30.1186 64.029 30.1186C64.6711 30.1186 65.2717 29.9545 65.7948 29.6673C65.8197 29.6646 65.8418 29.6646 65.8667 29.6618C65.8667 29.6618 65.2357 30.6218 63.5558 31.2208C63.2237 31.3384 63.0714 31.7186 63.2403 32.0249L63.2486 32.0413C63.3787 32.2793 63.6609 32.3942 63.9183 32.3121Z" stroke="#161633" stroke-miterlimit="10"/>
</svg>
